<?xml version="1.0" standalone="no"?>
<svg xmlns="http://www.w3.org/2000/svg" viewBox="0 0 132.745 29" width="132.745" height="29"><g fill="#fea701" color="#fea701" transform="translate(0, 0) scale(0.3020834)"><svg width="96.0" height="96.0" x="0.0" y="0.0" viewBox="0 0 96 96"><path d="M47.27734,37.69043a.99827.99827,0,0,0,1.44532,0l14.584-15.26172a9.94152,9.94152,0,0,0,0-13.59082,8.992,8.992,0,0,0-13.1123,0L48,11.13379l-2.19434-2.2959a8.992,8.992,0,0,0-13.1123,0,9.94152,9.94152,0,0,0,0,13.59082ZM34.13867,10.21875a6.99573,6.99573,0,0,1,10.22168,0l2.917,3.05273a1.02678,1.02678,0,0,0,1.44532,0l2.917-3.05273a6.99573,6.99573,0,0,1,10.22168,0,7.92344,7.92344,0,0,1,0,10.8291L48,35.55273,34.13867,21.04785A7.92344,7.92344,0,0,1,34.13867,10.21875Z"></path><path d="M47.94824,28.999l.00049-.00891c.01575.00086.0296.00977.04541.00989H48c.01416,0,.02661-.00793.04071-.00854l.00031.00756c6.043-.24707,8.63867-2.83984,8.958-8.94726a.99937.99937,0,0,0-.28808-.75488.95615.95615,0,0,0-.752-.2959,13.17459,13.17459,0,0,0-4.34.80706,13.535,13.535,0,0,0-2.87586-4.477,1.00228,1.00228,0,0,0-.7373-.331H48a1.00164,1.00164,0,0,0-.73535.32227,12.99138,12.99138,0,0,0-2.90637,4.49017,13.657,13.657,0,0,0-4.30652-.81146,1.00053,1.00053,0,0,0-1.05078,1.04C39.24805,26.084,41.84082,28.67969,47.94824,28.999Zm6.96387-7.91894c-.37665,3.45587-1.64667,5.077-4.61176,5.66693a8.043,8.043,0,0,0,1.70539-4.92615A8.898,8.898,0,0,1,54.91211,21.08008Zm-6.91992-3.55371c2.69238,3.32031,2.69726,5.70019.01562,8.94726C45.31543,23.15332,45.31055,20.77344,47.99219,17.52637ZM43.9881,21.836a8.2889,8.2889,0,0,0,1.72235,4.89087c-3.01648-.61334-4.2923-2.22266-4.63428-5.638A9.11967,9.11967,0,0,1,43.9881,21.836Z"></path><rect x="40" y="40" width="16" height="2"></rect><rect x="18" y="46" width="28" height="2"></rect><rect x="48" y="46" width="30" height="2"></rect><rect x="22" y="53" width="24" height="2"></rect><rect x="26" y="60" width="20" height="2"></rect><rect x="48" y="60.08887" width="8" height="2"></rect><rect x="48" y="53" width="14" height="2"></rect><rect x="58" y="77" width="2" height="3"></rect><rect x="51" y="77" width="2" height="3"></rect><rect x="65" y="77" width="2" height="3"></rect><path d="M87.17438,57.99054a2.56149,2.56149,0,0,0,.84125-3.26593.58255.58255,0,0,1,.25976-.78027l.76953-.38477,2.31934,2.31934,1.41406-1.41407-2.39941-2.39941a1.0017,1.0017,0,0,1-.27442-.51367l-.58886-2.94043-1.96094.39258.558,2.78546-.73187.3659a2.585,2.585,0,0,0-1.1543,3.46387.5793.5793,0,0,1-.25976.7793l-.49237.24621c-.47614-.335-.96912-.64532-1.47443-.93866V3a.99943.99943,0,0,0-1-1H13a.99943.99943,0,0,0-1,1V54.18866l-1-1.49835V47H9v2.69366L6.832,46.44531,5.168,47.55469l2.387,3.57617-3.23858-1.0791-.63282,1.89648,5.681,1.89368,1.08722,1.62878-.93323.57422A6.29087,6.29087,0,0,0,7.8623,65.2793L12,70.56635V90a.99943.99943,0,0,0,1,1H25.60229c1.78595,1.96332,4.0633,3.29944,6.4358,2.93945a8.32166,8.32166,0,0,0,1.17968-.27246,2.70173,2.70173,0,0,1,1.56446,0,8.28643,8.28643,0,0,0,1.18164.27246A5.13979,5.13979,0,0,0,36.75293,94a7.98961,7.98961,0,0,0,5.64618-3h6.09735a19.88366,19.88366,0,0,0,19.23425.98016A19.97271,19.97271,0,0,0,87.17438,57.99054ZM76.77832,65.98633c.55859,1.28906.84863,2.07226.32031,3.18262a2.721,2.721,0,0,1-1.93457,1.68847A4.58651,4.58651,0,0,0,72.40607,73H62.16425a7.74788,7.74788,0,0,1,1.86505-.7666,6.09209,6.09209,0,0,0,4.4248-8.541,4.40845,4.40845,0,0,1-.01367-3.80957c.72656-1.45312,1.78906-1.78808,3.13281-2.21093a6.53786,6.53786,0,0,0,3.95062-2.59467,17.86124,17.86124,0,0,1,7.14332,2.15607,4.28793,4.28793,0,0,1-2.2414,1.09192,5.01176,5.01176,0,0,0-3.64746,7.66113ZM45.981,82.39429A7.72341,7.72341,0,0,0,41.07886,75.582c-.01667-.19415-.04016-.38977-.05054-.582H76.27655A17.95845,17.95845,0,0,1,45.981,82.39429ZM66.54883,64.30176a4.40739,4.40739,0,0,1,.01269,3.81054c-.72656,1.45411-1.78906,1.78907-3.13379,2.2129A6.51048,6.51048,0,0,0,59.43079,73H56A18.0105,18.0105,0,0,1,72.734,55.06415a8.333,8.333,0,0,1-1.76135.69952,6.08794,6.08794,0,0,0-4.42383,8.53809ZM82,4V54.68146A19.97775,19.97775,0,0,0,54,73H40a.99943.99943,0,0,0-1,1c0,.35431.01324.71521.03271,1.07794a8.57023,8.57023,0,0,0-4.25018.5943c-.07409-.60278-.18078-1.17834-.30524-1.74493a6.96521,6.96521,0,0,0,.99244-.23c2.45312-.74317,3.93066-2.53809,3.4375-4.17676a2.38259,2.38259,0,0,0-1.2168-1.41113,5.34321,5.34321,0,0,0-3.95313-.14844,6.604,6.604,0,0,0-1.22845.50964c-.20441-.43323-.42206-.88019-.65338-1.34558l-1.791.89063a24.0937,24.0937,0,0,1,2.66474,7.44769,8.66667,8.66667,0,0,0-2.08252-.40631L21.47852,56.7207A6.27067,6.27067,0,0,0,14,53.53076V4ZM33.3197,70.31189a4.55156,4.55156,0,0,1,.99475-.43591,3.40518,3.40518,0,0,1,2.43653-.001c.0625.0332.21093.12109.24121.22266.09961.33007-.6416,1.24316-2.1084,1.6875a4.69106,4.69106,0,0,1-.9408.18615C33.76227,71.42651,33.55115,70.87421,33.3197,70.31189ZM8.5918,60.64551a4.29957,4.29957,0,0,1,1.97558-2.89746l3.03614-1.86817a4.29094,4.29094,0,0,1,6.08593,1.73535l3.0019,6.00379-4.206,2.52356,1.0293,1.71484,4.07379-2.44427,4.86615,9.73236a7.77254,7.77254,0,0,0-6.11572,5.38775l-3.499-4.47094,3.67481-2.2049-1.0293-1.71484-3.88757,2.33258-5.83124-7.45105L16.55469,63.832,15.44531,62.168,10.5304,65.44458l-1.09388-1.3977A4.2967,4.2967,0,0,1,8.5918,60.64551ZM14,89V73.122L22.02692,83.3786a8.345,8.345,0,0,0,.15472,1.17511A14.00373,14.00373,0,0,0,24.08234,89Zm22.27051,2.96289a6.27925,6.27925,0,0,1-.89453-.20605,4.67588,4.67588,0,0,0-2.752,0,6.31456,6.31456,0,0,1-.89257.20605c-3.33985.51563-6.84766-4.31836-7.59278-7.82519a5.81509,5.81509,0,0,1,4.85449-7.06348,6.67842,6.67842,0,0,1,4.48438.93555.99649.99649,0,0,0,1.04492,0,6.67956,6.67956,0,0,1,4.48438-.93555,5.81509,5.81509,0,0,1,4.85449,7.06348C43.11523,87.64551,39.56445,92.4668,36.27051,91.96289ZM43.91864,89c.24-.37732.46564-.76086.66907-1.1499.092.09515.17865.18988.27459.28564.30445.30542.62983.58124.95014.86426ZM59,92a17.84274,17.84274,0,0,1-12.72363-5.27832c-.29712-.29712-.56537-.5885-.82337-.8819q.15564-.4563.26721-.89892a19.93532,19.93532,0,0,0,29.7287-3.62641A18.03692,18.03692,0,0,1,59,92Zm11.17047-1.42426A19.88359,19.88359,0,0,0,79,74a.99943.99943,0,0,0-1-1H75.1889a6.74865,6.74865,0,0,1,.648-.25879,4.65774,4.65774,0,0,0,3.06739-2.71289,5.34229,5.34229,0,0,0-.291-4.83789c-.55957-1.28906-.84961-2.07227-.32129-3.18359.5293-1.10938,1.32031-1.377,2.67188-1.75489a5.87771,5.87771,0,0,0,3.39447-1.94787,18.07467,18.07467,0,0,1,6.41,8.20141,7.81174,7.81174,0,0,1-1.39728.41931c-1.32129.30665-2.96484.68946-3.87109,2.57032-.9082,1.88183-.18457,3.40527.39648,4.6289.57129,1.20215.87207,1.92969.40332,2.90137-.46972.97168-1.22753,1.18945-2.52636,1.49024-1.32129.30664-2.96582.68847-3.874,2.56933a9.67068,9.67068,0,0,0-.49511,5.26074,9.19065,9.19065,0,0,1-.16584,3.87152,17.73907,17.73907,0,0,1-9.068.35852Zm11.30042-1.22a16.10635,16.10635,0,0,0-.07441-3.19171,8.10192,8.10192,0,0,1,.30372-4.21c.46875-.9707,1.22656-1.18847,2.52539-1.49023,1.32129-.30567,2.96679-.6875,3.875-2.56934.9082-1.88086.18457-3.4043-.39746-4.6289-.57129-1.20215-.8711-1.92969-.40137-2.90235.46777-.9707,1.22461-1.18848,2.52246-1.49023a10.75,10.75,0,0,0,1.56122-.4588,17.873,17.873,0,0,1-9.91455,20.94152Z"></path></svg></g><line x1="41" y1="1" x2="41" y2="28" stroke="#fe4e01" stroke-linecap="round"></line><path fill="#fe4e01" fill-rule="nonzero" d="M3.48 17.69L3.48 17.69L3.60 10.61Q2.02 10.34 2.02 9.50L2.02 9.50Q2.02 9.12 2.23 8.90L2.23 8.90Q2.47 8.66 2.70 8.66Q2.93 8.66 3.60 8.81L3.60 8.81L3.53 4.94Q1.92 4.75 0.96 4.00Q0 3.24 0 2.11L0 2.11Q0 1.37 0.60 0.68Q1.20 0 2.41 0Q3.62 0 4.34 0.90Q5.06 1.80 5.23 3.31L5.23 3.31Q9.41 3.31 12.89 0.65L12.89 0.65Q13.46 0.26 13.68 0.26L13.68 0.26Q14.26 0.26 14.35 0.89L14.35 0.89Q14.35 1.90 12.90 2.88Q11.45 3.86 9.34 4.48Q7.22 5.09 5.33 5.09L5.33 5.09L5.33 9.05Q6.12 9.17 7.21 9.17Q8.30 9.17 9.77 8.89Q11.23 8.62 11.41 8.62Q11.59 8.62 11.82 8.80Q12.05 8.98 12.05 9.29L12.05 9.29Q12.05 9.96 10.33 10.39Q8.62 10.82 6.60 10.82L6.60 10.82Q5.98 10.82 5.33 10.78L5.33 10.78L5.45 17.69Q5.45 19.08 4.46 19.08Q3.48 19.08 3.48 17.69ZM3.48 3.22L3.48 3.22Q3.29 1.56 2.38 1.56L2.38 1.56Q2.09 1.56 1.87 1.75Q1.66 1.94 1.66 2.18L1.66 2.18Q1.66 3 3.48 3.22ZM16.56 12.86Q16.56 14.86 17.66 16.25Q18.77 17.64 20.44 17.64Q22.10 17.64 23.27 16.24Q24.43 14.83 24.43 12.84Q24.43 10.85 23.32 9.44Q22.20 8.04 20.56 8.04Q18.91 8.04 17.71 9.46L17.71 9.46Q16.56 10.87 16.56 12.86ZM16.44 17.36Q14.86 15.53 14.86 12.86Q14.86 10.20 16.46 8.34Q18.07 6.48 20.52 6.48Q22.97 6.48 24.55 8.32Q26.14 10.15 26.14 12.83Q26.14 15.50 24.52 17.35Q22.90 19.20 20.46 19.20Q18.02 19.20 16.44 17.36ZM30.82 13.34L30.82 13.34L30.89 17.86Q30.89 19.08 29.98 19.08L29.98 19.08Q28.87 19.08 28.87 17.44Q28.87 15.79 29.35 12.65L29.35 12.65Q29.35 11.64 29.15 9.83Q28.94 8.02 28.94 7.63Q28.94 7.25 29.21 6.92Q29.47 6.60 29.88 6.60Q30.29 6.60 30.55 6.92Q30.82 7.25 30.82 7.58Q30.82 7.92 30.80 8.66Q30.79 9.41 30.79 9.70L30.79 9.70Q31.25 8.50 32.28 7.54L32.28 7.54Q33.34 6.60 34.38 6.60Q35.42 6.60 36.04 7.02Q36.65 7.44 36.65 7.97Q36.65 8.50 36.38 8.78Q36.12 9.07 35.70 9.07Q35.28 9.07 34.78 8.64L34.78 8.64Q34.32 8.18 34.01 8.18L34.01 8.18Q33.22 8.18 32.16 9.90Q31.10 11.62 30.82 13.34ZM43.25 1.73L43.25 1.73Q43.25 0.60 44.11 0.60L44.11 0.60Q44.35 0.60 44.59 0.83Q44.83 1.06 44.94 1.38Q45.05 1.70 45.24 2.46Q45.43 3.22 45.72 4.18L45.72 4.18Q46.54 6.91 47.98 8.71L47.98 8.71Q48.77 9.70 49.49 9.70L49.49 9.70Q49.85 9.70 50.02 9.60L50.02 9.60Q51.07 2.90 52.78 1.22L52.78 1.22Q53.50 0.50 54.35 0.50Q55.20 0.50 55.64 1.04Q56.09 1.58 56.09 2.50L56.09 2.50Q56.09 4.49 54.71 6.76Q53.33 9.02 51.70 10.63L51.70 10.63Q51.50 11.83 51.50 13.87Q51.50 15.91 51.62 17.72Q51.74 19.54 51.74 19.90Q51.74 20.26 51.47 20.57Q51.19 20.88 50.76 20.88L50.76 20.88Q49.85 20.88 49.70 18.65L49.70 18.65Q49.68 18.07 49.68 16.61Q49.68 15.14 49.97 11.40L49.97 11.40Q49.68 11.45 49.34 11.45L49.34 11.45Q48.12 11.45 47.12 10.52Q46.13 9.60 45.20 7.63Q44.28 5.66 43.76 4.04Q43.25 2.42 43.25 1.73ZM54.19 2.23L54.19 2.23Q53.69 2.23 52.78 4.73Q51.86 7.22 51.77 8.42L51.77 8.42Q52.68 7.37 53.57 5.57Q54.46 3.77 54.46 2.74L54.46 2.74Q54.46 2.23 54.19 2.23ZM57.94 12.86Q57.94 14.86 59.04 16.25Q60.14 17.64 61.81 17.64Q63.48 17.64 64.64 16.24Q65.81 14.83 65.81 12.84Q65.81 10.85 64.69 9.44Q63.58 8.04 61.93 8.04Q60.29 8.04 59.09 9.46L59.09 9.46Q57.94 10.87 57.94 12.86ZM57.82 17.36Q56.23 15.53 56.23 12.86Q56.23 10.20 57.84 8.34Q59.45 6.48 61.90 6.48Q64.34 6.48 65.93 8.32Q67.51 10.15 67.51 12.83Q67.51 15.50 65.89 17.35Q64.27 19.20 61.84 19.20Q59.40 19.20 57.82 17.36ZM72.24 8.57L72.24 8.57L72.05 13.85Q72.05 15.50 72.76 16.51Q73.46 17.52 74.69 17.52Q75.91 17.52 77.06 16.15L77.06 16.15Q78.19 14.76 78.67 13.03L78.67 13.03L78.60 7.82Q78.60 6.60 79.51 6.60L79.51 6.60Q80.62 6.60 80.62 8.24Q80.62 9.89 80.14 13.03L80.14 13.03Q80.14 14.78 80.39 15.95Q80.64 17.11 81.02 17.26L81.02 17.26Q81.17 17.33 81.37 17.35Q81.58 17.38 81.66 17.42Q81.74 17.47 81.74 17.62L81.74 17.62Q81.74 18.26 81.35 18.67Q80.95 19.08 80.35 19.08L80.35 19.08Q78.84 19.08 78.84 16.01L78.84 16.01Q77.06 19.08 74.38 19.08L74.38 19.08Q72.46 19.08 71.40 17.66L71.40 17.66Q70.34 16.20 70.34 14.16L70.34 14.16L70.49 10.54Q70.49 9.79 70.30 8.75Q70.10 7.70 70.10 7.44Q70.10 7.18 70.40 6.89Q70.70 6.60 71.14 6.60L71.14 6.60Q72.24 6.60 72.24 8.57Z" transform="translate(51, 5.08)"></path></svg>